# xmcd CD database file
#
# Track frame offsets:
#	182
#	23942
#	45052
#	75025
#	102275
#	122262
#	143620
#	163262
#	187015
#	208967
#	232105
#	272120
#	291010
#
# Disc length: 4101 seconds
#
# Revision: 2
# Processed by: cddbd v1.5.1PL0 Copyright (c) Steve Scherf et al.
# Submitted via: CDex 1.40Release
#
DISCID=ab10030d
DTITLE=さだまさし - さだまさしシングルス全集第五巻さだまさし篇其の四
DYEAR=1992
DGENRE=
TTITLE0=軽井沢ホテル
TTITLE1=夢
TTITLE2=恋愛症候群
TTITLE3=カーテンコール
TTITLE4=Once Upon a Time
TTITLE5=Best for You,The
TTITLE6=春女苑
TTITLE7=デイジー
TTITLE8=男は大きな川になれ
TTITLE9=チャンス
TTITLE10=風に立つライオン
TTITLE11=道
TTITLE12=遠い祭り
EXTD=YEAR: 1992
EXTT0=
EXTT1=
EXTT2=
EXTT3=
EXTT4=
EXTT5=
EXTT6=
EXTT7=
EXTT8=
EXTT9=
EXTT10=
EXTT11=
EXTT12=
PLAYORDER=
